<svg width="560" height="360" viewBox="0 0 560 360" fill="none" xmlns="http://www.w3.org/2000/svg">
  <defs>
    <linearGradient id="l1" x1="0" y1="0" x2="1" y2="1">
      <stop offset="0%" stop-color="#22d3ee"/>
      <stop offset="100%" stop-color="#6366f1"/>
    </linearGradient>
    <filter id="sd" x="-20%" y="-20%" width="140%" height="140%">
      <feDropShadow dx="0" dy="14" stdDeviation="14" flood-color="#0ea5e9" flood-opacity="0.18"/>
    </filter>
  </defs>
  <rect x="40" y="30" rx="14" ry="14" width="480" height="300" fill="#0b1220" stroke="#172554"/>
  <g filter="url(#sd)">
    <rect x="70" y="60" rx="10" width="200" height="80" fill="#0f172a" stroke="#1f2a44"/>
    <rect x="90" y="78" rx="6" width="120" height="12" fill="#1e293b"/>
    <rect x="90" y="98" rx="6" width="160" height="12" fill="#1e293b"/>
    <circle cx="250" cy="82" r="8" fill="url(#l1)"/>
  </g>
  <g filter="url(#sd)">
    <rect x="300" y="60" rx="10" width="180" height="80" fill="#0f172a" stroke="#1f2a44"/>
    <rect x="320" y="78" rx="6" width="110" height="12" fill="#1e293b"/>
    <rect x="320" y="98" rx="6" width="140" height="12" fill="#1e293b"/>
    <circle cx="468" cy="82" r="8" fill="url(#l1)"/>
  </g>
  <g filter="url(#sd)">
    <rect x="100" y="170" rx="10" width="160" height="120" fill="#0f172a" stroke="#1f2a44"/>
    <rect x="120" y="188" rx="6" width="120" height="12" fill="#1e293b"/>
    <rect x="120" y="208" rx="6" width="120" height="12" fill="#1e293b"/>
    <rect x="120" y="228" rx="6" width="120" height="12" fill="#1e293b"/>
  </g>
  <g filter="url(#sd)">
    <rect x="300" y="170" rx="10" width="160" height="120" fill="#0f172a" stroke="#1f2a44"/>
    <rect x="320" y="188" rx="6" width="120" height="12" fill="#1e293b"/>
    <rect x="320" y="208" rx="6" width="120" height="12" fill="#1e293b"/>
    <rect x="320" y="228" rx="6" width="120" height="12" fill="#1e293b"/>
  </g>
  <path d="M270 100 C 300 140, 320 140, 340 100" stroke="url(#l1)" stroke-width="2" fill="none"/>
  <path d="M180 230 C 220 270, 340 270, 380 230" stroke="url(#l1)" stroke-width="2" fill="none"/>
</svg> 