<svg width="1200" height="640" viewBox="0 0 1200 640" fill="none" xmlns="http://www.w3.org/2000/svg">
  <defs>
    <linearGradient id="g" x1="0" y1="0" x2="1" y2="1">
      <stop offset="0%" stop-color="#0ea5e9"/>
      <stop offset="100%" stop-color="#6366f1"/>
    </linearGradient>
    <filter id="shadow" x="-20%" y="-20%" width="140%" height="140%">
      <feDropShadow dx="0" dy="20" stdDeviation="20" flood-color="#0ea5e9" flood-opacity="0.15"/>
    </filter>
  </defs>
  <rect x="100" y="60" rx="24" ry="24" width="1000" height="520" fill="#fff" stroke="#e5e7eb" filter="url(#shadow)"/>
  <rect x="140" y="110" rx="8" width="260" height="18" fill="#e2e8f0"/>
  <rect x="420" y="110" rx="8" width="120" height="18" fill="#e2e8f0"/>
  <rect x="560" y="110" rx="8" width="120" height="18" fill="#e2e8f0"/>
  <rect x="700" y="110" rx="8" width="120" height="18" fill="#e2e8f0"/>
  <rect x="840" y="100" rx="12" width="220" height="36" fill="url(#g)"/>
  <rect x="140" y="170" rx="12" width="920" height="44" fill="#f8fafc" stroke="#e5e7eb"/>
  <rect x="140" y="240" rx="10" width="920" height="280" fill="#fff" stroke="#e5e7eb"/>
  <g>
    <rect x="160" y="260" width="880" height="36" fill="#f1f5f9"/>
    <rect x="160" y="306" width="880" height="36" fill="#ffffff"/>
    <rect x="160" y="352" width="880" height="36" fill="#f9fafb"/>
    <rect x="160" y="398" width="880" height="36" fill="#ffffff"/>
    <rect x="160" y="444" width="880" height="36" fill="#f9fafb"/>
  </g>
  <circle cx="190" cy="188" r="10" fill="#94a3b8"/>
  <circle cx="214" cy="188" r="10" fill="#94a3b8"/>
  <circle cx="238" cy="188" r="10" fill="#94a3b8"/>
</svg> 